# xmcd CD database file
#
# Track frame offsets:
#	150
#	43813
#	94962
#	144320
#	183654
#	227943
#
# Disc length: 3679 seconds
#
# Revision: 0
# Processed by: cddbd v1.5.1PL0 Copyright (c) Steve Scherf et al.
# Submitted via: CDex 1.51
#
DISCID=530e5d06
DTITLE=Yoga Therapy - Music for Relaxation- Vol.2
DYEAR=1900
DGENRE=New Age
TTITLE0=In the Rising of the Sun
TTITLE1=Saffron Morning
TTITLE2=The Lotus Blooms
TTITLE3=Strengthening Day
TTITLE4=Neroli Scent
TTITLE5=An Undisturbed Calm
EXTD=
EXTT0=
EXTT1=
EXTT2=
EXTT3=
EXTT4=
EXTT5=
PLAYORDER=
